<svg id="Layer_1" data-name="Layer 1" xmlns="http://www.w3.org/2000/svg" viewBox="0 0 385.77 102.01"><path d="M4.46,5.23,17.71,46,35.07,2.63,51.34,46l15-40.75h3.46L51.34,55.05,35.07,11.42,17.21,55.05,1,5.23Z" transform="translate(-1.01 -0.76)" fill="#8f6d9b"/><path d="M72.86,38.92c0,7.49,5.48,12.39,11.67,12.39a11.21,11.21,0,0,0,10.22-6.7l2.45,1.44a14.18,14.18,0,0,1-12.89,8c-9.14,0-14.47-6.77-14.47-15.34,0-10.23,7.06-15.48,14.26-15.48C92,23.23,98,29.56,98,38.92ZM95,36.19C94.25,30.36,89.93,26,84.1,26s-10.23,4.54-11,10.23Z" transform="translate(-1.01 -0.76)" fill="#8f6d9b"/><path d="M130.39.76h2.88V53.25h-2.88V48a13.39,13.39,0,0,1-11.37,6c-7.42,0-14.4-5.33-14.4-15.63,0-10.73,7.27-15.19,14.4-15.19A13.26,13.26,0,0,1,130.39,29ZM107.64,38.35c0,8.57,5.62,13,11.52,13s11.38-4.39,11.38-13C130.54,31.51,126.29,26,119,26,113,26,107.64,30.14,107.64,38.35Z" transform="translate(-1.01 -0.76)" fill="#8f6d9b"/><path d="M167.55.76h2.88V53.25h-2.88V48a13.42,13.42,0,0,1-11.38,6c-7.42,0-14.4-5.33-14.4-15.63,0-10.73,7.27-15.19,14.4-15.19A13.29,13.29,0,0,1,167.55,29ZM144.79,38.35c0,8.57,5.62,13,11.52,13s11.38-4.39,11.38-13c0-6.84-4.25-12.39-11.52-12.39C150.12,26,144.79,30.14,144.79,38.35Z" transform="translate(-1.01 -0.76)" fill="#8f6d9b"/><path d="M179.64,14.08a2.59,2.59,0,1,1,5.18,0,2.59,2.59,0,1,1-5.18,0Zm4,9.79V53.25h-2.88V23.87Z" transform="translate(-1.01 -0.76)" fill="#8f6d9b"/><path d="M194,23.87h2.88v4.61a9.82,9.82,0,0,1,9-5.25c5.26,0,7.49,3.09,8.14,4.1,1.29,2.09,1.44,4.83,1.44,7.42v18.5h-2.89V34.75c0-2-.07-4.25-1.15-5.91-.64-1.08-2.23-2.88-5.76-2.88a7.72,7.72,0,0,0-7.2,4.11A16,16,0,0,0,196.92,38V53.25H194Z" transform="translate(-1.01 -0.76)" fill="#8f6d9b"/><path d="M252.93,23.87V52.39c0,11.09-5.54,17.42-14.76,17.42-7.63,0-14-4.46-14.4-12.6h3c.5,6.12,5.11,9.87,11.37,9.87,11.6,0,11.88-11.67,11.88-14.69V48.21a14.06,14.06,0,0,1-11.59,5.84c-7.2,0-14.47-5.26-14.47-15.49,0-8.49,5.61-15.33,14.83-15.33A13.26,13.26,0,0,1,250.05,29V23.87ZM227,38.71c0,7,4.47,12.6,11.38,12.6,7.27,0,11.81-5.69,11.81-12.89,0-6.84-4.47-12.46-11.67-12.46S227,31.94,227,38.71Z" transform="translate(-1.01 -0.76)" fill="#8f6d9b"/><path d="M281.37,53.25v-48h9.51c4.24,0,11.66.64,17.71,6.69a25.16,25.16,0,0,1,0,34.64c-6,6-13.47,6.69-17.71,6.69Zm3.17-2.88h6.26c12.68,0,21.39-8.64,21.39-21.09S303.4,8.11,290.8,8.11h-6.26Z" transform="translate(-1.01 -0.76)" fill="#8f6d9b"/><path d="M348.48,23.87h2.88V53.25h-2.88V48a13.45,13.45,0,0,1-11.45,6c-7.71,0-14.33-5.84-14.33-15.49,0-9.07,5.76-15.33,14.33-15.33A13.41,13.41,0,0,1,348.48,29ZM325.72,38.35c0,6.62,4.11,13,11.52,13s11.38-6.19,11.38-13c0-8.71-6.41-12.39-11.45-12.39C331.34,26,325.72,30.36,325.72,38.35Z" transform="translate(-1.01 -0.76)" fill="#8f6d9b"/><path d="M371.08,53.76l-14-29.89h3.32L372.74,50l10.73-26.14h3.31l-19.3,45.94h-3.31Z" transform="translate(-1.01 -0.76)" fill="#8f6d9b"/><path d="M74.79,80.74V101.3H71.11V80.74h-5.5V77.29H80.29v3.45Z" transform="translate(-1.01 -0.76)" fill="#d8bcac"/><path d="M103.91,77.29v24h-3.67v-24Z" transform="translate(-1.01 -0.76)" fill="#d8bcac"/><path d="M125.65,101.3l5-25.81L139,94.13l8.43-18.64L152,101.3h-3.74l-2.45-14.47-7,15.58-6.91-15.62L129.4,101.3Z" transform="translate(-1.01 -0.76)" fill="#d8bcac"/><path d="M187,80.74h-9.58v6.09h9.29v3.45h-9.29v7.56H187v3.46H173.75v-24H187Z" transform="translate(-1.01 -0.76)" fill="#d8bcac"/><path d="M212.13,77.29V97.84h7.05v3.46H208.45v-24Z" transform="translate(-1.01 -0.76)" fill="#d8bcac"/><path d="M243,77.29v24h-3.67v-24Z" transform="translate(-1.01 -0.76)" fill="#d8bcac"/><path d="M265.48,101.3V75.67L282.9,93.92V77.29h3.67v25.48L269.15,84.52V101.3Z" transform="translate(-1.01 -0.76)" fill="#d8bcac"/><path d="M322.28,80.74h-9.57v6.09H322v3.45h-9.29v7.56h9.57v3.46H309v-24h13.24Z" transform="translate(-1.01 -0.76)" fill="#d8bcac"/></svg>