<?xml version="1.0" encoding="utf-8"?>
<!-- Generator: Adobe Illustrator 24.1.1, SVG Export Plug-In . SVG Version: 6.00 Build 0)  -->
<svg version="1.1" id="Layer_1" xmlns="http://www.w3.org/2000/svg" xmlns:xlink="http://www.w3.org/1999/xlink" x="0px" y="0px"
	 viewBox="0 0 260.1 260.1" style="enable-background:new 0 0 260.1 260.1;" xml:space="preserve">
<style type="text/css">
	.st0{fill-rule:evenodd;clip-rule:evenodd;fill:#1977F3;}
	.st1{fill-rule:evenodd;clip-rule:evenodd;fill:#FEFEFE;}
</style>
<path class="st0" d="M260.1,130c0-71.8-58.2-130-130-130S0,58.2,0,130C0,195,47.6,248.8,109.7,258.5v-90.9h-33V130h33v-28.7
	c0-32.6,19.4-50.6,49.1-50.6c14.2,0,29.1,2.5,29.1,2.5v32h-16.4c-16.1,0-21.2,10-21.2,20.3V130h36.1l-5.8,37.6h-30.3v90.9
	C212.5,248.8,260.1,195,260.1,130L260.1,130z"/>
<path class="st1" d="M180.7,167.6l5.8-37.6h-36.1v-24.4c0-10.3,5-20.3,21.2-20.3H188v-32c0,0-14.9-2.5-29.1-2.5
	c-29.7,0-49.1,18-49.1,50.6V130h-33v37.6h33v90.9c6.6,1,13.4,1.6,20.3,1.6s13.7-0.5,20.3-1.6v-90.9L180.7,167.6L180.7,167.6z"/>
</svg>
